# xmcd
#
# Track frame offsets:
#	150
#	19969
#	35359
#	57648
#	80171
#	97204
#	112817
#	129105
#	153556
#	171044
#	188526
#	205877
#	231163
#	250835
#	273044
#	291117
#
# Disc length: 4104 seconds
#
# Revision: 0
# Processed by: cddbd v1.5.2PL0 Copyright (c) Steve Scherf et al.
# Submitted via: audiograbber 1.83.01
#
DISCID=d9100610
DTITLE=Blues Guitar Masters - Blues Guitar Masters - CD2
DYEAR=1997
DGENRE=Blues
TTITLE0=Gary Moore - Too Tired
TTITLE1=Albert Collins - Frosty
TTITLE2=A. Collins and R. Cray and J. Copeland - T - Bone Schuffle
TTITLE3=Johnny Copeland - Catch Up With The Blues
TTITLE4=Johnny 'Guitar' Watson - Gangster Of Love
TTITLE5=Johnny Winter - Johnny Guitar
TTITLE6=Lonnie Mack - Double Whammy
TTITLE7=Stevie Ray Vaughan - Say What!
TTITLE8=Vaughan Brothers - White Boots
TTITLE9=ZZ Top - La Grange
TTITLE10=Kenny Wayne Shepherd - One Foot On The Pass
TTITLE11=John Lee Hooker and Carlos Santana - THe Healer
TTITLE12=Roy Rogers - Vida's Place
TTITLE13=Ben Harper - Ground On Down
TTITLE14=Coco Montoya - Talkin' Woman Blues
TTITLE15=Tommy Castro - This Soul is Mine
EXTD=
EXTT0=
EXTT1=
EXTT2=
EXTT3=
EXTT4=
EXTT5=
EXTT6=
EXTT7=
EXTT8=
EXTT9=
EXTT10=
EXTT11=
EXTT12=
EXTT13=
EXTT14=
EXTT15=
PLAYORDER=
